Coordinates
version=1
nRows=13
nColumns=27
inDegrees=yes

Units are S.I. units (second, meters, Newtons, ...)
If the header above contains a line with 'inDegrees', this indicates whether rotational values are in degrees (yes) or radians (no).

endheader
time	pelvis_rotation	pelvis_tilt	pelvis_list	pelvis_tx	pelvis_ty	pelvis_tz	hip_flexion_r	hip_adduction_r	hip_rotation_r	knee_angle_r	knee_rotation_r	knee_adduction_r	knee_angle_r_beta	ankle_angle_r	subtalar_angle_r	mtp_angle_r	hip_flexion_l	hip_adduction_l	hip_rotation_l	knee_angle_l	knee_rotation_l	knee_adduction_l	knee_angle_l_beta	ankle_angle_l	subtalar_angle_l	mtp_angle_l
      5.03500000	     10.27027736	    -29.26999441	      5.68719928	     -0.04871652	      0.65089186	     -1.11709828	     92.51355209	    -44.90734792	      2.05412777	     76.52552697	      0.00000000	      9.47982566	      1.33562241	      8.20118513	      0.00000000	      0.00000000	     89.89536768	    -25.70970007	      1.22164975	     68.12993710	      0.00000000	     -9.67064204	      1.18909172	      2.39674501	      0.00000000	      0.00000000
      5.04000000	     10.55349044	    -29.10547942	      5.80271360	     -0.04814080	      0.65222388	     -1.11759572	     92.05247840	    -45.38898679	      1.61181927	     76.27396649	      0.00000000	      9.72074368	      1.33123185	      8.15787526	      0.00000000	      0.00000000	     89.51864174	    -25.43583923	      1.04290541	     67.90565657	      0.00000000	     -9.82149208	      1.18517729	      2.41369499	      0.00000000	      0.00000000
      5.04500000	     10.67610434	    -28.98399344	      5.74185362	     -0.04776643	      0.65358564	     -1.11797623	     91.46838066	    -45.58395051	      1.13342625	     75.95919485	      0.00000000	      9.72557586	      1.32573805	      8.09791583	      0.00000000	      0.00000000	     89.25167687	    -25.27832511	      1.06639079	     67.68716259	      0.00000000	     -9.81939859	      1.18136385	      2.36550826	      0.00000000	      0.00000000
      5.05000000	     10.45066994	    -28.91107826	      5.99510317	     -0.04769697	      0.65478279	     -1.11836485	     91.57563778	    -45.38452023	      1.49890590	     75.73656761	      0.00000000	      9.72590666	      1.32185247	      7.95609336	      0.00000000	      0.00000000	     88.72053684	    -25.47063755	      0.47214330	     67.43547696	      0.00000000	     -9.81934266	      1.17697111	      2.34367608	      0.00000000	      0.00000000
      5.05500000	     10.36487325	    -28.80677583	      6.09138246	     -0.04747160	      0.65603961	     -1.11878477	     91.33963665	    -45.33788638	      1.48382210	     75.45962461	      0.00000000	      9.72770697	      1.31701890	      7.86111951	      0.00000000	      0.00000000	     88.29498629	    -25.51068308	      0.16879746	     67.20695245	      0.00000000	     -9.81845168	      1.17298260	      2.34159482	      0.00000000	      0.00000000
      5.06000000	      9.89467974	    -28.81053281	      6.22862878	     -0.04767430	      0.65720109	     -1.11903611	     91.48200380	    -44.74613133	      2.00228306	     75.20160617	      0.00000000	      9.49597711	      1.31251563	      7.76752333	      0.00000000	      0.00000000	     87.83866988	    -25.89221482	     -0.35110236	     66.96407103	      0.00000000	     -9.66254313	      1.16874352	      2.23823992	      0.00000000	      0.00000000
      5.06500000	     10.26961056	    -28.62769184	      5.76933917	     -0.04674034	      0.65866558	     -1.11943890	     90.16524399	    -45.35736870	      0.47982675	     74.82550824	      0.00000000	      9.73079392	      1.30595148	      7.74751657	      0.00000000	      0.00000000	     87.85973031	    -25.54159287	      0.25779317	     66.84550899	      0.00000000	     -9.81805775	      1.16667422	      2.24692899	      0.00000000	      0.00000000
      5.07000000	      9.66437997	    -28.66988615	      6.23842395	     -0.04713072	      0.65962683	     -1.11984742	     90.90496123	    -44.61451650	      1.73306832	     74.64461876	      0.00000000	      9.49759918	      1.30279437	      7.53553241	      0.00000000	      0.00000000	     87.17780480	    -26.02129778	     -0.74497083	     66.56878315	      0.00000000	     -9.66083139	      1.16184444	      2.24713415	      0.00000000	      0.00000000
      5.07500000	     10.28224930	    -28.34813729	      6.27838767	     -0.04618237	      0.66088735	     -1.12056912	     90.00422388	    -45.50395075	      0.86132679	     74.38253161	      0.00000000	      9.73737288	      1.29822008	      7.55635591	      0.00000000	      0.00000000	     86.83294513	    -25.37232232	     -0.56663713	     66.38541095	      0.00000000	     -9.81414163	      1.15864400	      2.28580810	      0.00000000	      0.00000000
      5.08000000	     10.02569849	    -28.32979291	      6.53153545	     -0.04609740	      0.66194109	     -1.12104563	     90.19479360	    -45.26843859	      1.28748180	     74.16623417	      0.00000000	      9.73720610	      1.29444498	      7.42686096	      0.00000000	      0.00000000	     86.36544822	    -25.55369840	     -1.14808117	     66.17882300	      0.00000000	     -9.81383188	      1.15503836	      2.31279029	      0.00000000	      0.00000000
      5.08500000	      9.90723306	    -28.23651817	      6.62223827	     -0.04580044	      0.66308711	     -1.12152423	     89.99832212	    -45.20337435	      1.30432188	     73.90833044	      0.00000000	      9.73845221	      1.28994371	      7.33297423	      0.00000000	      0.00000000	     85.96344190	    -25.60079530	     -1.44070724	     65.97883025	      0.00000000	     -9.81273717	      1.15154782	      2.29859069	      0.00000000	      0.00000000
      5.09000000	      9.81478776	    -28.12405480	      6.71760064	     -0.04543384	      0.66424618	     -1.12202032	     89.76286570	    -45.16649168	      1.30417644	     73.64974911	      0.00000000	      9.74049805	      1.28543062	      7.25836329	      0.00000000	      0.00000000	     85.54163394	    -25.61708964	     -1.72215404	     65.78060117	      0.00000000	     -9.81225023	      1.14808807	      2.30778682	      0.00000000	      0.00000000
      5.09500000	      9.31976003	    -28.19120665	      6.85269687	     -0.04565642	      0.66527182	     -1.12233058	     90.00028494	    -44.54679010	      1.88479676	     73.40159582	      0.00000000	      9.51579703	      1.28109952	      7.17823197	      0.00000000	      0.00000000	     85.15474683	    -25.98530349	     -2.22816505	     65.56690666	      0.00000000	     -9.65131009	      1.14435840	      2.20144543	      0.00000000	      0.00000000
